<svg xmlns="http://www.w3.org/2000/svg" width="960" height="600" viewBox="0 0 960 600" role="img" aria-labelledby="title desc">
  <title id="title">Fast high protein breakfast</title>
  <desc id="desc">A breakfast bowl with yogurt, fruit, seeds, and boiled eggs on a teal table.</desc>
  <rect width="960" height="600" fill="#0f766e"/>
  <circle cx="805" cy="92" r="118" fill="#facc15" opacity=".75"/>
  <rect x="80" y="95" width="800" height="410" rx="42" fill="#f8fafc"/>
  <rect x="105" y="120" width="750" height="360" rx="32" fill="#ecfeff"/>
  <circle cx="360" cy="300" r="145" fill="#0f172a"/>
  <circle cx="360" cy="300" r="122" fill="#f8fafc"/>
  <circle cx="315" cy="270" r="34" fill="#fb7185"/>
  <circle cx="390" cy="248" r="30" fill="#f97316"/>
  <circle cx="424" cy="326" r="28" fill="#22c55e"/>
  <circle cx="330" cy="350" r="32" fill="#a855f7"/>
  <path d="M270 320c55-60 118-68 182-24" fill="none" stroke="#14b8a6" stroke-width="18" stroke-linecap="round"/>
  <g fill="#fef3c7">
    <ellipse cx="610" cy="275" rx="72" ry="48"/>
    <ellipse cx="705" cy="275" rx="72" ry="48"/>
  </g>
  <g fill="#f59e0b">
    <circle cx="610" cy="275" r="23"/>
    <circle cx="705" cy="275" r="23"/>
  </g>
  <rect x="560" y="355" width="205" height="34" rx="17" fill="#0f172a" opacity=".9"/>
  <rect x="582" y="407" width="160" height="18" rx="9" fill="#14b8a6"/>
</svg>
